<?xml version="1.0" encoding="utf-8"?>
<!-- SwapPoint logo: circular loop with two arrows (green). Color: #2ecc71 -->
<svg xmlns="http://www.w3.org/2000/svg" width="240" height="240" viewBox="0 0 240 240">
  <defs>
    <style>
      .g{fill:#2ecc71;}
    </style>
  </defs>
  <rect width="240" height="240" rx="24" fill="#0b0b0b"/>
  <!-- circle ring (thick) -->
  <path class="g" d="M120 40c44.183 0 80 35.817 80 80 0 4.418-3.582 8-8 8s-8-3.582-8-8c0-35.346-28.654-64-64-64s-64 28.654-64 64c0 2.209-.895 4.209-2.344 5.657-1.45 1.45-3.45 2.344-5.657 2.344-4.418 0-8 3.582-8 8s3.582 8 8 8c8.837 0 16-7.163 16-16 0-44.183 35.817-80 80-80z"/>
  <!-- left arrow -->
  <path class="g" d="M51 128c-2.21 0-4-1.79-4-4 0-1.1.45-2.1 1.17-2.83l28-28c1.6-1.6 4.2-1.6 5.8 0l2.83 2.83c1.6 1.6 1.6 4.2 0 5.8L72.66 125H108c2.21 0 4 1.79 4 4s-1.79 4-4 4H56z"/>
  <!-- right arrow -->
  <path class="g" d="M189 112h-36c-2.21 0-4-1.79-4-4s1.79-4 4-4h35.34l-14.34-14.34c-1.6-1.6-1.6-4.2 0-5.8l2.83-2.83c1.6-1.6 4.2-1.6 5.8 0l28 28c.72.72 1.17 1.72 1.17 2.83 0 2.21-1.79 4-4 4-2.21 0-4-1.79-4-4 0-8.837-7.163-16-16-16z"/>
</svg>
